<svg xmlns="http://www.w3.org/2000/svg" viewBox="0 0 300 300"><defs><style>.cls-1{fill:#2a94f4;}.cls-2{fill:#cce9ff;}.cls-3{fill:#0b4870;}</style></defs><title>Investment Colored Icons</title><g id="Layer_2" data-name="Layer 2"><path class="cls-1" d="M66.53,119.85s5.86-7.32,11.53-6.47a34.3,34.3,0,0,1,11,4.05l57-33.15s-1.87-9.19,2-14.13,12.77-6.3,15.66-4.26,3.75,17.41,3.75,17.41L211,121.21s10.11-4.93,16.8-1,9.93,14.64,2.52,18.55S219.93,144,219.93,144l-11.61,58.55s6.81,5.28,6.3,11.07-3.28,14.47-9.64,12.76-13-13.1-13-13.1l-58.21-10.56s-2.72,8.17-9.53,8.86a14.37,14.37,0,0,1-10.88-3.22s-2.74-8.7-2.23-9.38,2.23-9.5,2.23-9.5l-29.46-54s-10.69,1.52-13.09-.86S66.53,119.85,66.53,119.85Z"/><path class="cls-2" d="M83.55,115.51s5.36,8.77,4,12-2.73,6.72-9.49,6.81S67,127.46,67,125.57,69.6,112.36,83.55,115.51Z"/><path class="cls-2" d="M154.62,65.89s8-1.36,12,6.13-3.15,13.7-6.39,14S150.15,81.55,150,81.55,143.14,67.61,154.62,65.89Z"/><path class="cls-2" d="M219.21,121.21s-8.52,4.77-7,9.7,3.75,13.62,12.26,8.86,11.24-10.05,10-13.62S229.55,115.42,219.21,121.21Z"/><path class="cls-2" d="M207.13,203.91s11.57,8.37,7.49,15.35-8.68,9.79-12.94,7.36-12.42-12.4-5.79-17.54S207.13,203.91,207.13,203.91Z"/><path class="cls-2" d="M123.21,190.06s7.58,2.73,8.17,8.68-3.06,11.83-8.17,11.83-12.34-4.93-12.34-4.93S107.64,191,123.21,190.06Z"/></g><g id="Layer_1" data-name="Layer 1"><path class="cls-3" d="M266.45,117.05,263,115.93l-1.18-3.42-.7.24,1.17-1.71-9-6.16-4.12,6,5.8,4-19.84,6.85A14.39,14.39,0,0,0,214.59,118L171,82.13a14.37,14.37,0,0,0-9.5-20.08V50.32l7.16,4.93,4.12-6-9-6.16-2.32,3.35V43.41h-7.25V49l-3.5-5.08-9,6.16,4.12,6,8.34-5.77V62A14.2,14.2,0,0,0,144,80.21L88.14,114.3A14.45,14.45,0,0,0,66,116.68l-5.33-1.84,4.63-3.19-4.13-6-8.95,6.16,1.25,1.82-2,5.68,12.18,4.21c0,.36-.12.72-.12,1.13a14.32,14.32,0,0,0,18.32,13.93l29.58,51.56a14.32,14.32,0,0,0-1.16,19.36L93.86,231.44l-1.49-4.6-6.89,2.22,3.35,10.36,2.81-.91,3.84,2.9L116.07,214a14.43,14.43,0,0,0,18.7-7.42l55.84,9.71a14.43,14.43,0,0,0,19.91,12.22l5.34,7.14h-4.59v7.25h10.88V240l3.86-2.9-9.75-13a14.32,14.32,0,0,0-4.83-21.93l12.33-58a14.5,14.5,0,0,0,13.85-14.44c0-.39-.08-.75-.11-1.13l19.81-6.82-1.11,3.43,6.89,2.23ZM78.06,131.94a7.26,7.26,0,1,1,7.25-7.25,7.25,7.25,0,0,1-7.25,7.25ZM210,123.6a14.4,14.4,0,0,0-1.39,6.09c0,.38.09.75.12,1.13l-47.26,16.3V90a14.35,14.35,0,0,0,4.89-2.3ZM157.84,68.79a7.26,7.26,0,1,1-7.26,7.26,7.26,7.26,0,0,1,7.26-7.26ZM147.75,86.44A14.46,14.46,0,0,0,154.21,90v57.09L92.45,125.81c0-.38.11-.74.11-1.12a14.45,14.45,0,0,0-.68-4.18ZM121.57,207.8a7.26,7.26,0,1,1,7.26-7.25,7.26,7.26,0,0,1-7.26,7.25Zm5.52-20.67a13.87,13.87,0,0,0-9.33-.52L88.18,135.05a15.26,15.26,0,0,0,2-2.36L152,154Zm64.71,21.93L136,199.35a14.37,14.37,0,0,0-3.1-7.82l25-33.29,35.85,47.81a14.38,14.38,0,0,0-1.89,3Zm20.43,6A7.25,7.25,0,1,1,205,207.8a7.25,7.25,0,0,1,7.25,7.25Zm-7.89-14.44a14.31,14.31,0,0,0-4.88,1L163.72,154,211,137.69a14.61,14.61,0,0,0,5.63,4.92Zm18.77-63.67a7.26,7.26,0,1,1,7.25-7.25,7.25,7.25,0,0,1-7.25,7.25Zm0,0"/><path class="cls-3" d="M229.41,208l3.35-10.35,6.9,2.23-3.35,10.35Zm0,0"/><path class="cls-2" d="M236.1,187.27l3.36-10.35,6.9,2.23L243,189.5Zm0,0"/><path class="cls-2" d="M222.71,228.67l3.35-10.35,6.91,2.23-3.36,10.35Zm0,0"/><path class="cls-3" d="M242.81,166.57l3.34-10.36,6.9,2.24-3.34,10.35Zm0,0"/><path class="cls-2" d="M249.5,145.87l3.35-10.35,6.9,2.23L256.4,148.1Zm0,0"/><path class="cls-2" d="M213.4,86.13l4.11-6,9,6.18-4.12,6Zm0,0"/><path class="cls-3" d="M72.08,187.68l6.9-2.24,3.34,10.36L75.42,198Zm0,0"/><path class="cls-3" d="M123.84,62.45l8.95-6.18,4.12,6-9,6.18Zm0,0"/><path class="cls-2" d="M105.93,74.8l9-6.18,4.11,6-9,6.18Zm0,0"/><path class="cls-2" d="M78.77,208.38l6.9-2.24L89,216.49l-6.9,2.24Zm0,0"/><path class="cls-2" d="M70.11,99.5l9-6.17,4.12,6-9,6.17Zm0,0"/><path class="cls-2" d="M177.57,61.43l4.12-6,9,6.18-4.12,6Zm0,0"/><path class="cls-3" d="M231.31,98.48l4.11-6,9,6.18-4.12,6Zm0,0"/><path class="cls-3" d="M195.48,73.78l4.12-6,9,6.17-4.12,6Zm0,0"/><path class="cls-2" d="M52,125.57l6.9-2.23,3.35,10.35-6.9,2.23Zm0,0"/><rect class="cls-2" x="146" y="235.6" width="10.88" height="7.25"/><rect class="cls-3" x="124.24" y="235.6" width="10.88" height="7.25"/><rect class="cls-3" x="167.75" y="235.6" width="10.88" height="7.25"/><path class="cls-2" d="M65.38,167l6.9-2.23,3.35,10.35-6.9,2.23Zm0,0"/><rect class="cls-2" x="102.48" y="235.6" width="10.88" height="7.25"/><rect class="cls-2" x="189.51" y="235.6" width="10.88" height="7.25"/><path class="cls-3" d="M58.68,146.27l6.9-2.23,3.35,10.35L62,156.62Zm0,0"/><path class="cls-3" d="M88,87.15,97,81l4.12,6-9,6.17Zm0,0"/></g></svg>